<?xml version="1.0" encoding="utf-8"?>
<!-- Generator: Adobe Illustrator 18.0.0, SVG Export Plug-In . SVG Version: 6.00 Build 0)  -->
<!DOCTYPE svg PUBLIC "-//W3C//DTD SVG 1.1//EN" "http://www.w3.org/Graphics/SVG/1.1/DTD/svg11.dtd">
<svg version="1.1" id="Layer_1" xmlns="http://www.w3.org/2000/svg" xmlns:xlink="http://www.w3.org/1999/xlink" x="0px" y="0px"
	 viewBox="0 0 152.5 28" enable-background="new 0 0 152.5 28" xml:space="preserve">
<g>
	<g>
		<path fill="#A8CB58" d="M12.2,12.8l-1.4,2.3c1.7,0.9,2.8,2.7,2.8,4.8c0,3-2.4,5.5-5.5,5.5s-5.5-2.4-5.5-5.5c0-2.5,1.6-4.6,3.9-5.2
			c-0.6-0.7-1-1.5-1.4-2.3c-3,1.2-5.1,4.1-5.1,7.5C0,24.3,3.6,28,8.1,28s8.1-3.6,8.1-8.1C16.2,16.8,14.6,14.2,12.2,12.8z"/>
		<path fill="#FFFFFF" d="M21.7,11.8c-1.5,0-2.9,0.4-4.2,1.1c-0.8,0.4-1.7,0.7-2.6,0.7c-3,0-5.5-2.4-5.5-5.5s2.4-5.5,5.5-5.5
			s5.5,2.4,5.5,5.5c0,0.4-0.1,0.9-0.1,1.3c0.5-0.1,1-0.1,1.5-0.1c0.4,0,0.8,0,1.2,0.1c0.1-0.4,0.1-0.8,0.1-1.2
			c0-4.5-3.6-8.1-8.1-8.1S6.8,3.6,6.8,8.1s3.6,8.1,8.1,8.1c1.4,0,2.7-0.4,3.9-1c0,0,1.8-0.8,2.9-0.8c3,0,5.5,2.4,5.5,5.5
			s-2.4,5.5-5.5,5.5c-1.4,0-2.8-0.6-3.7-1.5c-0.3,0.8-0.8,1.6-1.3,2.4c1.4,1.1,3.1,1.8,5,1.8c4.5,0,8.1-3.6,8.1-8.1
			S26.2,11.8,21.7,11.8z"/>
	</g>
	<g>
		<path fill="#A8CC5A" d="M35.1,14c0-6.3,4.7-10.6,10.6-10.6c3.6,0,6.2,1.8,7.8,4.1l-2.2,1.2c-1.2-1.7-3.3-3-5.6-3
			c-4.5,0-7.9,3.5-7.9,8.4c0,4.9,3.4,8.4,7.9,8.4c2.3,0,4.5-1.2,5.6-3l2.2,1.2c-1.7,2.3-4.2,4.1-7.8,4.1
			C39.8,24.6,35.1,20.3,35.1,14z"/>
		<path fill="#A8CC5A" d="M55.9,16.8c0-4.3,2.8-7.8,7.4-7.8s7.4,3.5,7.4,7.8c0,4.3-2.8,7.8-7.4,7.8S55.9,21.1,55.9,16.8z M68.2,16.8
			c0-3-1.8-5.7-4.9-5.7c-3.2,0-5,2.7-5,5.7c0,3.1,1.8,5.8,5,5.8C66.4,22.6,68.2,19.9,68.2,16.8z"/>
		<path fill="#A8CC5A" d="M73.7,5.7c0-0.9,0.7-1.6,1.5-1.6c0.9,0,1.6,0.7,1.6,1.6c0,0.9-0.7,1.5-1.6,1.5C74.4,7.2,73.7,6.6,73.7,5.7
			z M74.1,24.3V9.4h2.3v14.9H74.1z"/>
		<path fill="#A8CC5A" d="M90.1,24.3v-9.7c0-2.6-1.3-3.5-3.3-3.5c-1.8,0-3.5,1.1-4.4,2.3v10.9h-2.3V9.4h2.3v2.2
			c1-1.2,3.1-2.5,5.3-2.5c3.1,0,4.7,1.6,4.7,4.8v10.4H90.1z"/>
		<path fill="#FFFFFF" d="M95.6,21.3l1.5-1.9c1.4,1.5,3.6,2.9,6.5,3c3.7,0,4.8-2,4.9-3.5c0-5.3-12.2-2.4-12.1-9.8
			c0-3.4,3-5.7,7.1-5.7c3.1,0,5.6,1.1,7.3,2.9l-1.5,1.9c-1.5-1.7-3.7-2.5-5.9-2.5c-2.5,0-4.2,1.3-4.2,3.3c0,4.6,12.2,2,12.1,9.7
			c0,3-2.1,6-7.6,6C99.9,24.6,97.3,23.3,95.6,21.3z"/>
		<path fill="#FFFFFF" d="M123.8,24.3v-1.7c-1.2,1.4-2.9,2.1-4.9,2.1c-2.5,0-5.2-1.7-5.2-4.9c0-3.3,2.7-4.9,5.2-4.9
			c2,0,3.7,0.6,4.9,2v-2.7c0-2-1.6-3.1-3.8-3.1c-1.8,0-3.2,0.6-4.6,2.1l-1.1-1.6c1.6-1.7,3.5-2.5,5.9-2.5c3.1,0,5.8,1.4,5.8,5v10.2
			H123.8z M123.8,21.1v-2.8c-0.9-1.2-2.5-1.8-4.1-1.8c-2.2,0-3.7,1.4-3.7,3.3c0,1.9,1.5,3.2,3.7,3.2C121.3,23,122.9,22.4,123.8,21.1
			z"/>
		<path fill="#FFFFFF" d="M131.1,24.3V11.4h-2.5v-2h2.5V8.2c0-3.1,1.7-4.8,4.3-4.8c1.2,0,2.2,0.3,3.1,1.1l-1,1.5
			c-0.5-0.4-1.1-0.7-1.8-0.7c-1.5,0-2.3,1-2.3,2.9v1.1h3v2h-3v12.9H131.1z"/>
		<path fill="#FFFFFF" d="M138,16.8c0-4.3,3.1-7.8,7.3-7.8c4.5,0,7.2,3.5,7.2,8v0.6h-12.1c0.2,2.8,2.2,5.1,5.4,5.1
			c1.7,0,3.4-0.7,4.6-1.9l1.1,1.5c-1.5,1.5-3.5,2.3-5.9,2.3C141.1,24.6,138,21.5,138,16.8z M145.3,10.9c-3.2,0-4.7,2.7-4.9,5h9.8
			C150.1,13.7,148.7,10.9,145.3,10.9z"/>
	</g>
</g>
</svg>
